<svg width="94" height="107" viewBox="0 0 94 107" fill="none" xmlns="http://www.w3.org/2000/svg">
<g clip-path="url(#clip0_533_5924)">
<path d="M62.9773 101.686L60.6899 99.4622L62.9773 97.1665L65.2687 99.4622L62.9773 101.686Z" fill="url(#paint0_linear_533_5924)"/>
<path d="M50.2862 5.65343C50.1415 5.85306 50.0129 6.00478 49.8762 6.14052C49.1486 6.8472 48.2802 7.20653 47.2994 7.20653C46.3024 7.20653 45.4341 6.8472 44.7266 6.14452C44.019 5.44183 43.6572 4.57944 43.6572 3.58929C43.6572 2.58317 44.019 1.72478 44.7306 1.03007C45.3255 0.443172 46.021 0.0958209 46.8049 0H46.821C46.8652 0 46.9014 0.0279478 46.9134 0.0678731C46.9295 0.111791 46.9054 0.163694 46.8652 0.183657C45.7838 0.710672 45.1165 1.78466 45.1165 2.98642C45.1165 4.71918 46.5356 6.13254 48.2843 6.13254C48.9516 6.13254 49.5827 5.92493 50.1576 5.51769C50.1777 5.50172 50.2018 5.49772 50.2139 5.49772C50.23 5.49772 50.2581 5.50172 50.2822 5.52966C50.3104 5.5616 50.3144 5.61351 50.2862 5.65343Z" fill="url(#paint1_linear_533_5924)"/>
<path d="M37.5952 47.4673C37.5952 46.7885 37.5751 45.1356 36.4133 44.9759V43.9778C39.1027 43.9778 40.2846 45.6706 40.2846 47.4633V60.5987C40.2042 63.9485 37.4947 67.1944 34.1058 67.1944H8.98875C8.30535 67.1944 7.58577 67.1545 6.90236 66.8151H6.92246C4.23307 65.6972 3.73057 63.4654 3.73057 61.513C3.73057 60.6546 3.75067 59.361 3.83107 57.6882C3.81097 57.0094 3.73057 56.3347 3.42907 56.175L3.48937 56.1949C3.02707 55.9754 2.54467 55.8955 2.20699 55.8955C1.62409 55.8955 1.1055 56.2748 0.643202 56.9895L0 56.3906C0.582902 55.1569 1.68439 53.9591 3.39289 53.9591C5.94158 53.9591 6.34358 56.1111 6.34358 57.9836C6.34358 58.9019 6.30338 59.6764 6.30338 60.2953C6.30338 61.1138 6.32348 61.6488 6.36368 61.9282V61.9482C6.54458 63.1819 7.14759 64.4196 8.77167 64.4994H34.0455C35.9309 64.4395 37.5952 62.7866 37.5952 60.6346V47.4673Z" fill="url(#paint2_linear_533_5924)"/>
<path d="M48.433 65.4416C48.433 72.4165 43.9386 78.0181 37.9207 78.0181C36.7187 78.0181 35.4122 77.7186 33.7881 77.1197L34.4112 76.0817C35.4162 76.5608 36.2966 76.8003 37.0604 76.8003C39.2875 76.8003 41.3337 75.6066 42.9577 73.9097C44.6823 71.8576 45.6873 68.9071 45.6873 65.4416V53.7434H48.437V65.4416H48.433ZM47.0501 51.5515L44.823 49.3796L47.0501 47.1677L49.2772 49.3796L47.0501 51.5515Z" fill="url(#paint3_linear_533_5924)"/>
<path d="M56.4571 60.5188C56.4772 62.6708 58.0209 64.2638 60.0269 64.2638H61.2289V66.9548H60.0269C56.5576 66.9548 53.7275 63.6849 53.7275 60.5188V48.0621C53.7275 45.3312 55.2712 44.2772 57.6591 44.2173V45.2753C56.9958 45.3152 56.7144 45.7344 56.5938 46.3134V46.2934C56.4933 46.9122 56.433 47.3914 56.433 48.2058C56.433 48.5252 56.433 48.9045 56.4531 49.3437V59.864V60.5188H56.4571Z" fill="url(#paint4_linear_533_5924)"/>
<path d="M77.6065 66.9589H73.5744C71.689 66.9589 70.085 66.1603 69.0398 64.6472C67.9544 65.8809 66.1494 66.9589 64.5052 66.9589H60.9556V64.2679H64.4892C66.2941 64.208 67.7614 62.575 67.7614 60.2634V54.6818H70.4508V60.9581C70.4508 62.7307 71.8538 64.208 73.6025 64.2679H77.6145V66.9589H77.6065ZM69.1805 51.6315L66.9132 49.3797L69.1805 47.2078L71.4277 49.3797L69.1805 51.6315Z" fill="url(#paint5_linear_533_5924)"/>
<path d="M80.9391 64.2678C80.9391 62.6747 80.9391 61.1177 80.9391 59.5446C80.9391 56.135 83.8898 53.2284 87.2786 53.2284H91.6122C92.2152 52.8691 93.0353 52.7293 93.98 52.5896V53.6077C92.8383 53.8073 92.8182 55.6599 92.8182 57.5723L92.7177 61.1576C92.6172 64.3277 89.9881 66.9547 86.8204 66.9547H77.3291V64.2638H80.9391V64.2678ZM87.6002 55.9154C85.333 55.9154 83.6084 57.5284 83.6285 59.5805L83.6486 64.2638H86.74C88.5248 64.2638 90.0524 62.9702 90.0524 61.1935V56.654C90.0524 56.4144 90.0725 56.115 90.0926 55.9154H87.6002Z" fill="url(#paint6_linear_533_5924)"/>
<path d="M14.9867 93.7567C14.9867 100.732 10.4923 106.333 4.47437 106.333C3.27239 106.333 1.96588 106.034 0.341797 105.435L0.964899 104.397C1.9699 104.876 2.85029 105.115 3.61409 105.115C5.84118 105.115 7.88736 103.922 9.51145 102.225C11.236 100.173 12.241 97.2223 12.241 93.7567V82.0586H14.9907V93.7567H14.9867Z" fill="url(#paint7_linear_533_5924)"/>
<path d="M19.923 77.2557C19.923 75.8424 19.923 74.9041 19.8426 74.2853L19.8627 74.3452C19.6818 73.6465 19.4406 73.2672 18.7612 73.1514V72.2131C21.3501 72.293 22.6325 73.6265 22.6325 76.2376V95.27H19.923V77.2557Z" fill="url(#paint8_linear_533_5924)"/>
<path d="M32.1601 92.5789H37.3982V95.2698H32.1601C32.1199 98.6196 31.135 101.346 29.0687 103.558V103.538C27.1029 105.73 24.6949 106.828 21.8447 106.828C20.6227 106.828 19.3161 106.529 17.7725 105.95L18.3755 104.912C19.3202 105.371 20.1604 105.611 20.9644 105.611C25.519 105.611 29.4707 101.446 29.4707 94.8906V82.0386H32.1601V92.5789Z" fill="url(#paint9_linear_533_5924)"/>
<path d="M69.1806 84.3104C67.858 84.5699 67.858 86.3226 67.858 88.295V89.2132C67.858 92.5231 65.2088 95.2699 61.5787 95.2699H37.0566V92.5789H61.5747C63.7013 92.5789 65.1445 91.1856 65.1445 89.0336V87.201C65.1445 84.6498 66.9294 83.5558 69.1766 83.436V84.3104H69.1806Z" fill="url(#paint10_linear_533_5924)"/>
<path d="M91.2907 77.2557C91.2907 75.8424 91.2907 74.9041 91.2103 74.2853L91.2304 74.3452C91.0495 73.6465 90.8083 73.2672 90.1289 73.1514V72.2131C92.7178 72.293 94.0002 73.6265 94.0002 76.2376V106.781H91.2907V77.2557Z" fill="url(#paint11_linear_533_5924)"/>
<path d="M56.4974 40.1091L56.5175 40.1689C56.4572 39.6938 56.4411 39.0271 56.4371 38.1008L56.4813 18.7051C56.4813 12.9917 48.5096 8.81955 47.6011 8.3644L46.978 8.05298L46.3549 8.3644C45.4464 8.81955 37.4747 12.9917 37.4747 18.7051L37.4948 37.0508V37.1985C37.4948 38.6119 37.4948 39.5501 37.4144 40.1689L37.4345 40.1091C37.2536 40.8078 37.0124 41.187 36.333 41.3028V42.2411C38.9219 42.1612 40.2043 40.8277 40.2043 38.2166V37.0508L40.2284 18.7051C40.2284 15.5789 44.6424 12.4488 46.978 11.1352C49.3136 12.4528 53.7276 15.5789 53.7276 18.7051V19.1842H53.7236V38.2166C53.7236 40.8277 55.006 42.1612 57.5949 42.2411V41.3028C56.9195 41.187 56.6783 40.8078 56.4974 40.1091Z" fill="url(#paint12_linear_533_5924)"/>
<path d="M79.2988 107C75.934 107 73.1924 104.281 73.1924 100.935C73.1924 97.5935 75.93 94.8706 79.2988 94.8706C82.6676 94.8706 85.4052 97.5895 85.4052 100.935C85.4052 104.281 82.6676 107 79.2988 107ZM79.2988 97.6374C77.4657 97.6374 75.9742 99.1187 75.9742 100.939C75.9742 102.76 77.4657 104.241 79.2988 104.241C81.1319 104.241 82.6233 102.76 82.6233 100.939C82.6233 99.1187 81.1319 97.6374 79.2988 97.6374Z" fill="url(#paint13_linear_533_5924)"/>
<path d="M82.6956 76.2174V76.5408V91.5568C82.6956 93.4173 81.172 94.9305 79.3027 94.9305C77.4294 94.9305 75.9058 93.4173 75.9058 91.5568V76.5448V77.2555C75.9058 75.8421 75.9058 74.9039 75.9862 74.285L75.9661 74.3449C76.147 73.6462 76.3882 73.2709 77.0676 73.1512V72.2129C74.4787 72.2928 73.1963 73.6263 73.1963 76.2374V91.5528C73.1963 93.6489 74.2737 95.4974 75.9058 96.5914C76.8786 97.2381 78.0444 97.6174 79.3027 97.6174C80.561 97.6174 81.7227 97.2381 82.6956 96.5914C84.2795 95.5373 85.3367 93.7646 85.4051 91.7484C85.4051 91.6845 85.4091 91.6167 85.4091 91.5528C85.4091 91.4889 85.4091 91.421 85.4051 91.3571V77.2315C85.4051 75.8182 85.4051 74.8799 85.4855 74.2611L85.4654 74.321C85.6463 73.6223 85.8875 73.247 86.5669 73.1272V72.189C83.978 72.2728 82.6956 73.6063 82.6956 76.2174Z" fill="url(#paint14_linear_533_5924)"/>
</g>
<defs>
<linearGradient id="paint0_linear_533_5924" x1="91.2057" y1="99.425" x2="18.4054" y2="99.425" gradientUnits="userSpaceOnUse">
<stop stop-color="#CFA53E"/>
<stop offset="0.919" stop-color="#F4E084"/>
</linearGradient>
<linearGradient id="paint1_linear_533_5924" x1="40.6186" y1="-6.84109" x2="86.0035" y2="79.0696" gradientUnits="userSpaceOnUse">
<stop stop-color="#2A7E91"/>
<stop offset="0.7465" stop-color="#0B5267"/>
<stop offset="1" stop-color="#004258"/>
</linearGradient>
<linearGradient id="paint2_linear_533_5924" x1="20.1419" y1="44.8478" x2="20.1419" y2="71.1343" gradientUnits="userSpaceOnUse">
<stop stop-color="#2A7E91"/>
<stop offset="0.7465" stop-color="#0B5267"/>
<stop offset="1" stop-color="#004258"/>
</linearGradient>
<linearGradient id="paint3_linear_533_5924" x1="41.531" y1="44.9891" x2="41.531" y2="75.5608" gradientUnits="userSpaceOnUse">
<stop stop-color="#2A7E91"/>
<stop offset="0.7465" stop-color="#0B5267"/>
<stop offset="1" stop-color="#004258"/>
</linearGradient>
<linearGradient id="paint4_linear_533_5924" x1="57.4805" y1="44.9891" x2="57.4805" y2="75.5609" gradientUnits="userSpaceOnUse">
<stop stop-color="#2A7E91"/>
<stop offset="0.7465" stop-color="#0B5267"/>
<stop offset="1" stop-color="#004258"/>
</linearGradient>
<linearGradient id="paint5_linear_533_5924" x1="69.2792" y1="44.9892" x2="69.2792" y2="75.5609" gradientUnits="userSpaceOnUse">
<stop stop-color="#2A7E91"/>
<stop offset="0.7465" stop-color="#0B5267"/>
<stop offset="1" stop-color="#004258"/>
</linearGradient>
<linearGradient id="paint6_linear_533_5924" x1="85.6529" y1="44.9891" x2="85.6529" y2="75.5608" gradientUnits="userSpaceOnUse">
<stop stop-color="#2A7E91"/>
<stop offset="0.7465" stop-color="#0B5267"/>
<stop offset="1" stop-color="#004258"/>
</linearGradient>
<linearGradient id="paint7_linear_533_5924" x1="91.2061" y1="94.1937" x2="18.4057" y2="94.1937" gradientUnits="userSpaceOnUse">
<stop stop-color="#CFA53E"/>
<stop offset="0.919" stop-color="#F4E084"/>
</linearGradient>
<linearGradient id="paint8_linear_533_5924" x1="91.2058" y1="83.7417" x2="18.4055" y2="83.7417" gradientUnits="userSpaceOnUse">
<stop stop-color="#CFA53E"/>
<stop offset="0.919" stop-color="#F4E084"/>
</linearGradient>
<linearGradient id="paint9_linear_533_5924" x1="91.2059" y1="94.4328" x2="18.4056" y2="94.4328" gradientUnits="userSpaceOnUse">
<stop stop-color="#CFA53E"/>
<stop offset="0.919" stop-color="#F4E084"/>
</linearGradient>
<linearGradient id="paint10_linear_533_5924" x1="91.2061" y1="89.3512" x2="18.4058" y2="89.3512" gradientUnits="userSpaceOnUse">
<stop stop-color="#CFA53E"/>
<stop offset="0.919" stop-color="#F4E084"/>
</linearGradient>
<linearGradient id="paint11_linear_533_5924" x1="91.2062" y1="89.4975" x2="18.4058" y2="89.4975" gradientUnits="userSpaceOnUse">
<stop stop-color="#CFA53E"/>
<stop offset="0.919" stop-color="#F4E084"/>
</linearGradient>
<linearGradient id="paint12_linear_533_5924" x1="37.5144" y1="13.0326" x2="53.961" y2="44.1649" gradientUnits="userSpaceOnUse">
<stop stop-color="#2A7E91"/>
<stop offset="0.7465" stop-color="#0B5267"/>
<stop offset="1" stop-color="#004258"/>
</linearGradient>
<linearGradient id="paint13_linear_533_5924" x1="106.611" y1="98.2247" x2="-13.2045" y2="110.289" gradientUnits="userSpaceOnUse">
<stop stop-color="#CFA53E"/>
<stop offset="0.919" stop-color="#F4E084"/>
</linearGradient>
<linearGradient id="paint14_linear_533_5924" x1="91.2058" y1="84.9052" x2="18.4055" y2="84.9052" gradientUnits="userSpaceOnUse">
<stop stop-color="#CFA53E"/>
<stop offset="0.919" stop-color="#F4E084"/>
</linearGradient>
<clipPath id="clip0_533_5924">
<rect width="94" height="107" fill="white"/>
</clipPath>
</defs>
</svg>
